PathFileType	3	(X/Y/Z)	E:\ViconData\BIOM9541 2025\Week 7\Wed1100\Hanif  deep squat 2-5 Squat 01.trc
DataRate	CameraRate	NumFrames	NumMarkers	Units	OrigDataRate	OrigDataStartFrame	OrigNumFrames
200.0	200.0	14	19	mm	200.0	1004	1338	
Frame#	Time	C7			CLAV			RBAK			LASI			RASI			LPSI			RPSI			LTHI			LKNE			LTIB			LANK			LHEE			LTOE			RTHI			RKNE			RTIB			RANK			RHEE			RTOE			
		X1	Y1	Z1	X2	Y2	Z2	X3	Y3	Z3	X4	Y4	Z4	X5	Y5	Z5	X6	Y6	Z6	X7	Y7	Z7	X8	Y8	Z8	X9	Y9	Z9	X10	Y10	Z10	X11	Y11	Z11	X12	Y12	Z12	X13	Y13	Z13	X14	Y14	Z14	X15	Y15	Z15	X16	Y16	Z16	X17	Y17	Z17	X18	Y18	Z18	X19	Y19	Z19	
1004	5.015	262.80911	803.3678	-1215.4138	131.41075	702.17169	-1203.3406	293.3743	729.01123	-1363.2649				270.9776	405.90857	-1342.3225	452.28354	443.01373	-1171.1486	448.32355	438.83191	-1243.8237	212.40689	397.28436	-918.3222	104.11997	350.7749	-848.46875	208.8091	180.42465	-897.13007	299.91531	64.652618	-970.45337	317.30185	55.316719	-1030.686	163.18181	39.187756	-932.03412	329.91742	403.74628	-1412.1742	92.487099	326.39236	-1563.6862	126.38397	253.03012	-1550.4993	285.90723	69.534874	-1435.2915	307.25598	55.549793	-1358.9307	163.04474	39.30851	-1474.9717
1005	5.02	262.78369	803.25348	-1215.4425	132.02249	701.92133	-1204.1073	293.38565	728.89624	-1363.291				271.09509	405.82224	-1342.218	452.36703	442.9072	-1170.9993	448.42963	438.78452	-1243.6816	212.63147	397.33408	-918.00183	104.35157	350.82819	-848.29382	208.91432	180.4369	-896.99359	299.8826	64.641357	-970.40387	317.26871	55.387108	-1030.6494	163.14677	39.208134	-931.98395	330.15149	403.7081	-1412.0026	92.756706	326.55527	-1563.7227	126.57047	253.19582	-1550.53	285.90671	69.539886	-1435.2915	307.29074	55.588348	-1358.9377	163.05743	39.319908	-1474.9816
1006	5.025	262.7511	803.15985	-1215.4335	132.03685	701.79669	-1203.9309	293.31403	728.82227	-1363.2548				271.26883	405.80112	-1342.1183	452.42801	442.88159	-1170.6655	448.46786	438.60114	-1243.5411	212.8291	397.38275	-917.77374	104.51576	350.8317	-848.10162	209.03964	180.44209	-896.88055	299.84601	64.629982	-970.28491	317.29285	55.489662	-1030.6206	163.16522	39.212296	-931.9101	330.43301	403.71844	-1411.8627	93.004272	326.77567	-1563.7329	126.77394	253.39221	-1550.5657	285.94876	69.588524	-1435.3073	307.27579	55.651279	-1358.8533	163.07742	39.382542	-1474.9677
1007	5.03	262.72598	803.13171	-1215.4109	132.07364	701.74304	-1203.9208	293.2811	728.79718	-1363.2388				271.4169	405.80081	-1342.0408	452.49512	442.87943	-1170.3708	448.47864	438.37601	-1243.3516	213.04314	397.38855	-917.78864	104.66662	350.8284	-847.92883	209.09601	180.44794	-896.76556	299.8685	64.624962	-970.24133	317.28625	55.514435	-1030.5701	163.19194	39.252861	-931.89197	330.67792	403.7312	-1411.6824	93.266533	326.99228	-1563.7577	126.99185	253.61562	-1550.5886	285.98221	69.610985	-1435.288	307.26996	55.662365	-1358.7898	163.1086	39.413101	-1474.9592
1008	5.035	262.69876	803.0979	-1215.4227	132.10896	701.69788	-1203.9005	293.27136	728.77216	-1363.2159				271.63055	405.74957	-1341.9459	452.57251	442.85349	-1170.2139	448.5903	438.40543	-1243.176	213.17752	397.45352	-917.53845	104.77032	350.8685	-847.6861	209.16663	180.46635	-896.67157	299.92249	64.603546	-970.24475	317.34082	55.528671	-1030.5614	163.21985	39.272884	-931.91882	330.93362	403.77567	-1411.5138	93.570915	327.12189	-1563.7603	127.22501	253.73196	-1550.5974	286.04047	69.59874	-1435.3051	307.27512	55.631596	-1358.7837	163.12422	39.424675	-1474.9663
1009	5.04	262.6752	803.10223	-1215.4355	132.12553	701.72266	-1203.8308	293.25668	728.78534	-1363.199				271.81525	405.71967	-1341.8356	452.66541	442.8678	-1170.21	448.72229	438.48004	-1243.0051	213.2878	397.40567	-917.31921	104.87781	350.92978	-847.53149	209.18408	180.47871	-896.57623	299.95663	64.586586	-970.25262	317.40302	55.553886	-1030.5782	163.25128	39.235451	-931.93713	331.16653	403.81671	-1411.354	93.883163	327.26746	-1563.7528	127.42619	253.82364	-1550.5902	286.08786	69.559799	-1435.3142	307.32825	55.539532	-1358.8596	163.18329	39.412655	-1475.0059
1010	5.045	262.64224	803.18237	-1215.4558	132.1581	701.79028	-1203.7891	293.2023	728.8114	-1363.1599				271.99142	405.79953	-1341.7762	452.78845	442.91049	-1170.2098	448.86127	438.59836	-1242.8583	213.36737	397.37357	-917.21851	104.9628	350.92163	-847.42493	209.21938	180.49065	-896.50623	299.97879	64.581833	-970.23523	317.43643	55.559395	-1030.5773	163.27257	39.224434	-931.95569	331.38358	403.90021	-1411.1973	94.116913	327.42548	-1563.7175	127.61433	253.93066	-1550.5709	286.10553	69.568901	-1435.3209	307.34995	55.495384	-1358.8998	163.21729	39.416019	-1475.0005
1011	5.05	262.64001	803.36285	-1215.4612	132.19353	701.97589	-1203.7156	293.14816	728.93988	-1363.1331				272.12753	405.91766	-1341.6613	452.90573	443.09293	-1170.0942	448.95596	438.70959	-1242.7045	213.46489	397.41299	-917.09662	105.05495	350.93784	-847.3194	209.25763	180.49258	-896.44897	299.97989	64.635269	-970.24585	317.43054	55.597805	-1030.549	163.2713	39.280228	-931.9726	331.58606	404.04401	-1411.0564	94.339531	327.64972	-1563.6864	127.78683	254.11919	-1550.5359	286.14185	69.598236	-1435.3273	307.36496	55.519794	-1358.8381	163.22926	39.463375	-1475.028
1012	5.055	262.61069	803.53571	-1215.4176	132.24205	702.05328	-1203.6022	293.1051	729.11768	-1363.1084				272.26123	406.12946	-1341.592	452.97354	443.26419	-1169.7295	449.01312	438.78745	-1242.5667	213.55786	397.53784	-916.9397	105.1394	350.90701	-847.26904	209.32791	180.50389	-896.38702	299.96155	64.665604	-970.2002	317.46164	55.692638	-1030.5529	163.27122	39.352448	-931.9339	331.81949	404.22525	-1410.9343	94.546364	327.93344	-1563.6699	127.90822	254.34584	-1550.5312	286.14224	69.691116	-1435.3334	307.33289	55.581604	-1358.7292	163.23827	39.493431	-1475.0128
1013	5.06	262.59119	803.71539	-1215.4034	132.26884	702.16705	-1203.447	293.0683	729.29913	-1363.0817				272.43039	406.28885	-1341.5198	453.0769	443.46439	-1169.6122	449.069	438.75317	-1242.4926	213.63763	397.63568	-916.74023	105.20982	350.93549	-847.1723	209.34352	180.50668	-896.3269	300.00485	64.642471	-970.19067	317.46729	55.691345	-1030.5229	163.26897	39.362087	-931.91089	332.0307	404.37103	-1410.8005	94.745583	328.12158	-1563.6119	128.04425	254.51254	-1550.5104	286.15811	69.703468	-1435.3331	307.36215	55.56905	-1358.7692	163.22917	39.49049	-1474.9977
1014	5.065	262.56042	803.82172	-1215.396	132.3226	702.2179	-1203.4542	293.02539	729.41016	-1363.0449				272.59183	406.42303	-1341.4419	453.19772	443.57047	-1169.6821	449.27887	439.11893	-1242.4052	213.76086	397.75195	-916.59167	105.27824	350.99039	-847.11224	209.35451	180.54002	-896.26294	299.99979	64.568909	-970.14178	317.46265	55.63472	-1030.4922	163.27916	39.323925	-931.96844	332.25452	404.43234	-1410.6602	94.921074	328.22247	-1563.562	128.21478	254.59396	-1550.4691	286.19388	69.612572	-1435.3235	307.40219	55.536518	-1358.8121	163.25136	39.467392	-1475.022
1015	5.07	262.513	803.91083	-1215.361	132.35941	702.2915	-1203.4332	292.96609	729.54279	-1363.024				272.75891	406.52304	-1341.3472	453.31335	443.70181	-1169.6233	449.45172	439.36813	-1242.2834	213.85304	397.7341	-916.58606	105.32961	351.01285	-847.03992	209.4005	180.55295	-896.24298	300.00412	64.52179	-970.13422	317.43182	55.544365	-1030.4468	163.29245	39.256805	-931.99261	332.46094	404.51065	-1410.5419	95.103401	328.30722	-1563.4944	128.3611	254.64746	-1550.4227	286.23975	69.535393	-1435.3303	307.43021	55.460693	-1358.8799	163.26422	39.412521	-1475.0103
1016	5.075	262.48853	804.03333	-1215.3628	132.3739	702.42908	-1203.3569	292.91217	729.71387	-1362.9885				272.84875	406.68488	-1341.2279	453.43167	443.97195	-1169.5117	449.52371	439.47498	-1242.1528	213.93204	397.77448	-916.43115	105.43608	351.03177	-846.98474	209.4162	180.53308	-896.18176	300.02722	64.540924	-970.11432	317.34283	55.453156	-1030.3275	163.28674	39.243904	-931.94232	332.60553	404.68378	-1410.4095	95.255867	328.46454	-1563.3973	128.47868	254.7993	-1550.3477	286.19577	69.533867	-1435.3154	307.42471	55.472507	-1358.8385	163.24225	39.427715	-1475.0056
1017	5.08	262.43018	804.18127	-1215.3568	132.42278	702.6004	-1203.327	292.86511	729.90021	-1362.9324				273.09586	406.73373	-1341.0629	453.54272	444.24023	-1169.1581	449.5239	439.51758	-1242.0061	213.98973	397.8707	-916.13708	105.51275	351.01199	-846.9212	209.47533	180.47862	-896.17255	300.02893	64.595192	-970.07233	317.44525	55.623112	-1030.3999	163.25748	39.292713	-931.8819	332.77167	404.92792	-1410.2863	95.42292	328.66003	-1563.2649	128.57994	254.9895	-1550.2786	286.18848	69.586792	-1435.2913	307.43286	55.534214	-1358.7394	163.25902	39.479755	-1475.0093
